<?xml version="1.0" encoding="utf-8"?>
<!-- Generator: Adobe Illustrator 28.0.0, SVG Export Plug-In . SVG Version: 6.00 Build 0)  -->
<svg version="1.1" xmlns="http://www.w3.org/2000/svg" xmlns:xlink="http://www.w3.org/1999/xlink" x="0px" y="0px"
	 viewBox="0 0 500 500" style="enable-background:new 0 0 500 500;" xml:space="preserve">
<style type="text/css">
	.st0{fill:#1E1E1E;}
	.st1{fill:#776D6D;}
	.st2{display:none;}
	.st3{display:inline;fill:#3D3939;}
</style>
<g id="Layer_2">
	<path class="st0" d="M368.86,427.14H131.14c-34.7,0-62.83-28.13-62.83-62.83V135.68c0-34.7,28.13-62.83,62.83-62.83h237.72
		c34.7,0,62.83,28.13,62.83,62.83v228.64C431.69,399.02,403.56,427.14,368.86,427.14z"/>
</g>
<g id="Layer_8">
	<g>
		<g>
			<path class="st1" d="M149.97,264.96l-2.13,4.79l-27.7,65.53H94.83L181.4,139.5l86.57,195.79h-25.31l-27.17-63.93l-2.13-5.33
				l-31.97-75.12L149.97,264.96z M140.65,258.04h82.58l7.99,21.31h-98.56L140.65,258.04z"/>
			<path class="st1" d="M306.47,329.83c-8.79-5.42-15.63-12.92-20.51-22.51c-4.89-9.59-7.33-20.69-7.33-33.3
				c0-12.79,2.53-23.97,7.59-33.56c5.06-9.59,12.16-17.05,21.31-22.38c9.14-5.33,19.75-7.99,31.83-7.99
				c12.08,0,22.42,2.53,31.03,7.59c8.61,5.06,15.23,12.3,19.85,21.71c4.62,9.42,6.93,20.6,6.93,33.56c0,1.24-0.05,2.53-0.13,3.86
				c-0.09,1.33-0.13,2.18-0.13,2.53H292.22v-18.11h87.91l-8.52,12.25c0.53-0.89,1.07-2.27,1.6-4.13c0.53-1.87,0.8-3.42,0.8-4.66
				c0-7.28-1.47-13.59-4.4-18.91c-2.93-5.33-6.97-9.5-12.12-12.52c-5.15-3.02-11.19-4.53-18.11-4.53c-8.17,0-15.14,1.73-20.91,5.19
				c-5.77,3.46-10.21,8.44-13.32,14.92c-3.11,6.48-4.75,14.43-4.93,23.84c0,9.59,1.51,17.76,4.53,24.51
				c3.02,6.75,7.46,11.9,13.32,15.45c5.86,3.55,12.96,5.33,21.31,5.33c8.35,0,15.72-1.82,22.11-5.46
				c6.39-3.64,11.81-9.19,16.25-16.65l17.32,10.92c-6.39,10.3-14.43,18.07-24.11,23.31c-9.68,5.24-21.09,7.86-34.23,7.86
				C325.34,337.95,315.26,335.25,306.47,329.83z"/>
		</g>
	</g>
</g>
<g id="Layer_3" class="st2">
	<path class="st3" d="M368.86,427.14H131.14c-34.7,0-62.83-28.13-62.83-62.83V135.68c0-34.7,28.13-62.83,62.83-62.83h237.72
		c34.7,0,62.83,28.13,62.83,62.83v228.64C431.69,399.02,403.56,427.14,368.86,427.14z"/>
</g>
<g id="Layer_4" class="st2">
	<path class="st3" d="M368.86,427.14H131.14c-34.7,0-62.83-28.13-62.83-62.83V135.68c0-34.7,28.13-62.83,62.83-62.83h237.72
		c34.7,0,62.83,28.13,62.83,62.83v228.64C431.69,399.02,403.56,427.14,368.86,427.14z"/>
</g>
<g id="Layer_5" class="st2">
	<path class="st3" d="M368.86,427.14H131.14c-34.7,0-62.83-28.13-62.83-62.83V135.68c0-34.7,28.13-62.83,62.83-62.83h237.72
		c34.7,0,62.83,28.13,62.83,62.83v228.64C431.69,399.02,403.56,427.14,368.86,427.14z"/>
</g>
<g id="Layer_6" class="st2">
	<path class="st3" d="M368.86,427.14H131.14c-34.7,0-62.83-28.13-62.83-62.83V135.68c0-34.7,28.13-62.83,62.83-62.83h237.72
		c34.7,0,62.83,28.13,62.83,62.83v228.64C431.69,399.02,403.56,427.14,368.86,427.14z"/>
</g>
<g id="Layer_7" class="st2">
	<path class="st3" d="M368.86,427.14H131.14c-34.7,0-62.83-28.13-62.83-62.83V135.68c0-34.7,28.13-62.83,62.83-62.83h237.72
		c34.7,0,62.83,28.13,62.83,62.83v228.64C431.69,399.02,403.56,427.14,368.86,427.14z"/>
</g>
</svg>
