<?xml version="1.0" encoding="utf-8"?>
<!-- Generator: Adobe Illustrator 28.0.0, SVG Export Plug-In . SVG Version: 6.00 Build 0)  -->
<svg version="1.1" xmlns="http://www.w3.org/2000/svg" xmlns:xlink="http://www.w3.org/1999/xlink" x="0px" y="0px"
	 viewBox="0 0 500 500" style="enable-background:new 0 0 500 500;" xml:space="preserve">
<style type="text/css">
	.st0{fill:#1E1E1E;}
	.st1{fill:#776D6D;}
	.st2{display:none;}
	.st3{display:inline;fill:#3D3939;}
</style>
<g id="Layer_2">
	<path class="st0" d="M368.86,427.14H131.14c-34.7,0-62.83-28.13-62.83-62.83V135.68c0-34.7,28.13-62.83,62.83-62.83h237.72
		c34.7,0,62.83,28.13,62.83,62.83v228.64C431.69,399.02,403.56,427.14,368.86,427.14z"/>
</g>
<g id="Layer_8">
	<g>
		<g>
			<path class="st1" d="M190.11,264.96l-2.13,4.79l-27.7,65.53h-25.31l86.58-195.79l86.57,195.79h-25.31l-27.17-63.93l-2.13-5.33
				l-31.97-75.12L190.11,264.96z M180.79,258.04h82.58l7.99,21.31h-98.56L180.79,258.04z"/>
			<path class="st1" d="M333.82,151.75c2.93-2.84,6.35-4.26,10.26-4.26c4.08,0,7.55,1.42,10.39,4.26c2.84,2.84,4.26,6.31,4.26,10.39
				c0,3.91-1.42,7.33-4.26,10.26c-2.84,2.93-6.31,4.39-10.39,4.39c-3.91,0-7.33-1.46-10.26-4.39c-2.93-2.93-4.4-6.35-4.4-10.26
				C329.42,158.06,330.89,154.59,333.82,151.75z M354.73,212.75v122.54h-21.31V212.75H354.73z"/>
		</g>
	</g>
</g>
<g id="Layer_3" class="st2">
	<path class="st3" d="M368.86,427.14H131.14c-34.7,0-62.83-28.13-62.83-62.83V135.68c0-34.7,28.13-62.83,62.83-62.83h237.72
		c34.7,0,62.83,28.13,62.83,62.83v228.64C431.69,399.02,403.56,427.14,368.86,427.14z"/>
</g>
<g id="Layer_4" class="st2">
	<path class="st3" d="M368.86,427.14H131.14c-34.7,0-62.83-28.13-62.83-62.83V135.68c0-34.7,28.13-62.83,62.83-62.83h237.72
		c34.7,0,62.83,28.13,62.83,62.83v228.64C431.69,399.02,403.56,427.14,368.86,427.14z"/>
</g>
<g id="Layer_5" class="st2">
	<path class="st3" d="M368.86,427.14H131.14c-34.7,0-62.83-28.13-62.83-62.83V135.68c0-34.7,28.13-62.83,62.83-62.83h237.72
		c34.7,0,62.83,28.13,62.83,62.83v228.64C431.69,399.02,403.56,427.14,368.86,427.14z"/>
</g>
<g id="Layer_6" class="st2">
	<path class="st3" d="M368.86,427.14H131.14c-34.7,0-62.83-28.13-62.83-62.83V135.68c0-34.7,28.13-62.83,62.83-62.83h237.72
		c34.7,0,62.83,28.13,62.83,62.83v228.64C431.69,399.02,403.56,427.14,368.86,427.14z"/>
</g>
<g id="Layer_7" class="st2">
	<path class="st3" d="M368.86,427.14H131.14c-34.7,0-62.83-28.13-62.83-62.83V135.68c0-34.7,28.13-62.83,62.83-62.83h237.72
		c34.7,0,62.83,28.13,62.83,62.83v228.64C431.69,399.02,403.56,427.14,368.86,427.14z"/>
</g>
</svg>
