<?xml version="1.0" encoding="utf-8"?>
<!-- Generator: Adobe Illustrator 28.0.0, SVG Export Plug-In . SVG Version: 6.00 Build 0)  -->
<svg version="1.1" xmlns="http://www.w3.org/2000/svg" xmlns:xlink="http://www.w3.org/1999/xlink" x="0px" y="0px"
	 viewBox="0 0 500 500" style="enable-background:new 0 0 500 500;" xml:space="preserve">
<style type="text/css">
	.st0{fill:#1E1E1E;}
	.st1{fill:#776D6D;}
	.st2{display:none;}
	.st3{display:inline;fill:#3D3939;}
</style>
<g id="Layer_2">
	<path class="st0" d="M368.86,427.14H131.14c-34.7,0-62.83-28.13-62.83-62.83V135.68c0-34.7,28.13-62.83,62.83-62.83h237.72
		c34.7,0,62.83,28.13,62.83,62.83v228.64C431.69,399.02,403.56,427.14,368.86,427.14z"/>
</g>
<g id="Layer_8">
	<g>
		<g>
			<path class="st1" d="M170.16,148.82v186.47h-22.64V148.82H170.16z M160.03,148.82h38.09c12.07,0,22.86,2.26,32.37,6.79
				c9.5,4.53,17.05,10.97,22.64,19.31c5.59,8.35,8.39,18.29,8.39,29.83c0,11.37-2.8,21.27-8.39,29.7
				c-5.59,8.44-13.14,14.92-22.64,19.45c-9.5,4.53-20.29,6.79-32.37,6.79h-38.09v-21.31h38.09c12.07,0,21.88-2.93,29.44-8.79
				c7.55-5.86,11.32-14.47,11.32-25.84c0-11.54-3.78-20.2-11.32-25.97c-7.55-5.77-17.36-8.66-29.44-8.66h-38.09V148.82z"/>
			<path class="st1" d="M313.47,335.29h-21.31V212.75h21.31V335.29z M342.77,231.53c-2.31-0.97-5.24-1.46-8.79-1.46
				c-5.33,0-9.5,1.33-12.52,4c-3.02,2.66-5.11,6.31-6.26,10.92c-1.16,4.62-1.73,9.86-1.73,15.72h-9.59c0-9.76,1.73-18.42,5.19-25.97
				c3.46-7.55,7.95-13.54,13.45-17.98c5.5-4.44,11.1-6.66,16.78-6.66c4.44,0,8.57,0.58,12.39,1.73c3.82,1.16,7.33,3.42,10.52,6.79
				l-11.72,17.58C347.65,234.06,345.08,232.51,342.77,231.53z"/>
		</g>
	</g>
</g>
<g id="Layer_3" class="st2">
	<path class="st3" d="M368.86,427.14H131.14c-34.7,0-62.83-28.13-62.83-62.83V135.68c0-34.7,28.13-62.83,62.83-62.83h237.72
		c34.7,0,62.83,28.13,62.83,62.83v228.64C431.69,399.02,403.56,427.14,368.86,427.14z"/>
</g>
<g id="Layer_4" class="st2">
	<path class="st3" d="M368.86,427.14H131.14c-34.7,0-62.83-28.13-62.83-62.83V135.68c0-34.7,28.13-62.83,62.83-62.83h237.72
		c34.7,0,62.83,28.13,62.83,62.83v228.64C431.69,399.02,403.56,427.14,368.86,427.14z"/>
</g>
<g id="Layer_5" class="st2">
	<path class="st3" d="M368.86,427.14H131.14c-34.7,0-62.83-28.13-62.83-62.83V135.68c0-34.7,28.13-62.83,62.83-62.83h237.72
		c34.7,0,62.83,28.13,62.83,62.83v228.64C431.69,399.02,403.56,427.14,368.86,427.14z"/>
</g>
<g id="Layer_6" class="st2">
	<path class="st3" d="M368.86,427.14H131.14c-34.7,0-62.83-28.13-62.83-62.83V135.68c0-34.7,28.13-62.83,62.83-62.83h237.72
		c34.7,0,62.83,28.13,62.83,62.83v228.64C431.69,399.02,403.56,427.14,368.86,427.14z"/>
</g>
<g id="Layer_7" class="st2">
	<path class="st3" d="M368.86,427.14H131.14c-34.7,0-62.83-28.13-62.83-62.83V135.68c0-34.7,28.13-62.83,62.83-62.83h237.72
		c34.7,0,62.83,28.13,62.83,62.83v228.64C431.69,399.02,403.56,427.14,368.86,427.14z"/>
</g>
</svg>
