<?xml version="1.0" encoding="utf-8"?>
<!-- Generator: Adobe Illustrator 28.0.0, SVG Export Plug-In . SVG Version: 6.00 Build 0)  -->
<svg version="1.1" xmlns="http://www.w3.org/2000/svg" xmlns:xlink="http://www.w3.org/1999/xlink" x="0px" y="0px"
	 viewBox="0 0 500 500" style="enable-background:new 0 0 500 500;" xml:space="preserve">
<style type="text/css">
	.st0{fill:#1E1E1E;}
	.st1{fill:#776D6D;}
	.st2{display:none;}
	.st3{display:inline;fill:#3D3939;}
</style>
<g id="Layer_2">
	<path class="st0" d="M368.86,427.14H131.14c-34.7,0-62.83-28.13-62.83-62.83V135.68c0-34.7,28.13-62.83,62.83-62.83h237.72
		c34.7,0,62.83,28.13,62.83,62.83v228.64C431.69,399.02,403.56,427.14,368.86,427.14z"/>
</g>
<g id="Layer_8">
	<g>
		<g>
			<path class="st1" d="M162.72,148.82v186.47h-22.64V148.82H162.72z M152.6,148.82h38.09c12.07,0,22.86,2.26,32.37,6.79
				c9.5,4.53,17.05,10.97,22.64,19.31c5.59,8.35,8.39,18.29,8.39,29.83c0,11.37-2.8,21.27-8.39,29.7
				c-5.59,8.44-13.14,14.92-22.64,19.45c-9.5,4.53-20.29,6.79-32.37,6.79H152.6v-21.31h38.09c12.07,0,21.88-2.93,29.44-8.79
				c7.55-5.86,11.32-14.47,11.32-25.84c0-11.54-3.78-20.2-11.32-25.97c-7.55-5.77-17.36-8.66-29.44-8.66H152.6V148.82z"/>
			<path class="st1" d="M298.31,308.12c3.2,3.2,6.88,5.73,11.05,7.59c4.17,1.86,8.75,2.8,13.72,2.8c6.04,0,10.79-1.37,14.25-4.13
				c3.46-2.75,5.19-6.53,5.19-11.32c0-4.26-1.38-7.86-4.13-10.79c-2.76-2.93-6.26-5.42-10.52-7.46c-4.26-2.04-8.79-3.95-13.58-5.73
				c-5.33-2.13-10.7-4.66-16.12-7.59c-5.42-2.93-9.95-6.75-13.59-11.46c-3.64-4.7-5.46-10.61-5.46-17.71
				c0-7.28,1.91-13.32,5.73-18.11c3.82-4.79,8.79-8.35,14.92-10.66c6.13-2.31,12.47-3.46,19.05-3.46c6.57,0,12.74,1.07,18.51,3.2
				c5.77,2.13,10.88,4.97,15.32,8.52c4.44,3.55,7.9,7.64,10.39,12.25l-17.05,10.92c-3.38-4.62-7.59-8.43-12.65-11.45
				c-5.06-3.02-10.79-4.53-17.18-4.53c-4.44,0-8.26,0.98-11.45,2.93c-3.2,1.96-4.79,4.97-4.79,9.06c0,3.2,1.24,6.04,3.73,8.52
				c2.48,2.49,5.68,4.71,9.59,6.66c3.9,1.96,7.99,3.82,12.25,5.59c7.1,2.84,13.59,5.91,19.45,9.19c5.86,3.29,10.52,7.24,13.99,11.85
				c3.46,4.62,5.19,10.57,5.19,17.85c0,10.66-3.86,19.54-11.59,26.64c-7.72,7.1-17.89,10.66-30.5,10.66
				c-8.17,0-15.54-1.47-22.11-4.4c-6.57-2.93-12.12-6.7-16.65-11.32c-4.53-4.62-7.95-9.32-10.26-14.12l16.78-10.39
				C292.27,301.46,295.11,304.92,298.31,308.12z"/>
		</g>
	</g>
</g>
<g id="Layer_3" class="st2">
	<path class="st3" d="M368.86,427.14H131.14c-34.7,0-62.83-28.13-62.83-62.83V135.68c0-34.7,28.13-62.83,62.83-62.83h237.72
		c34.7,0,62.83,28.13,62.83,62.83v228.64C431.69,399.02,403.56,427.14,368.86,427.14z"/>
</g>
<g id="Layer_4" class="st2">
	<path class="st3" d="M368.86,427.14H131.14c-34.7,0-62.83-28.13-62.83-62.83V135.68c0-34.7,28.13-62.83,62.83-62.83h237.72
		c34.7,0,62.83,28.13,62.83,62.83v228.64C431.69,399.02,403.56,427.14,368.86,427.14z"/>
</g>
<g id="Layer_5" class="st2">
	<path class="st3" d="M368.86,427.14H131.14c-34.7,0-62.83-28.13-62.83-62.83V135.68c0-34.7,28.13-62.83,62.83-62.83h237.72
		c34.7,0,62.83,28.13,62.83,62.83v228.64C431.69,399.02,403.56,427.14,368.86,427.14z"/>
</g>
<g id="Layer_6" class="st2">
	<path class="st3" d="M368.86,427.14H131.14c-34.7,0-62.83-28.13-62.83-62.83V135.68c0-34.7,28.13-62.83,62.83-62.83h237.72
		c34.7,0,62.83,28.13,62.83,62.83v228.64C431.69,399.02,403.56,427.14,368.86,427.14z"/>
</g>
<g id="Layer_7" class="st2">
	<path class="st3" d="M368.86,427.14H131.14c-34.7,0-62.83-28.13-62.83-62.83V135.68c0-34.7,28.13-62.83,62.83-62.83h237.72
		c34.7,0,62.83,28.13,62.83,62.83v228.64C431.69,399.02,403.56,427.14,368.86,427.14z"/>
</g>
</svg>
