<?xml version="1.0" encoding="utf-8"?>
<!-- Generator: Adobe Illustrator 28.0.0, SVG Export Plug-In . SVG Version: 6.00 Build 0)  -->
<svg version="1.1" xmlns="http://www.w3.org/2000/svg" xmlns:xlink="http://www.w3.org/1999/xlink" x="0px" y="0px"
	 viewBox="0 0 500 500" style="enable-background:new 0 0 500 500;" xml:space="preserve">
<style type="text/css">
	.st0{fill:#1E1E1E;}
	.st1{fill:#776D6D;}
	.st2{display:none;}
	.st3{display:inline;fill:#3D3939;}
</style>
<g id="Layer_2">
	<path class="st0" d="M368.86,427.14H131.14c-34.7,0-62.83-28.13-62.83-62.83V135.68c0-34.7,28.13-62.83,62.83-62.83h237.72
		c34.7,0,62.83,28.13,62.83,62.83v228.64C431.69,399.02,403.56,427.14,368.86,427.14z"/>
</g>
<g id="Layer_8">
	<g>
		<g>
			<path class="st1" d="M245.09,148.82l-55.14,88.71l59.14,97.76h-26.64l-43.95-78.05l-45.29,78.05h-26.64l60.74-97.76l-54.08-88.71
				h26.64l38.89,68.99l39.69-68.99H245.09z"/>
			<path class="st1" d="M269.33,239.79c5.5-9.5,12.87-16.82,22.11-21.98c9.23-5.15,19.35-7.72,30.37-7.72
				c10.3,0,19.27,2.58,26.91,7.72c7.63,5.15,13.63,12.48,17.98,21.98c4.35,9.5,6.53,20.91,6.53,34.23c0,13.14-2.18,24.51-6.53,34.1
				c-4.35,9.59-10.35,16.96-17.98,22.11c-7.64,5.15-16.61,7.73-26.91,7.73c-11.01,0-21.14-2.58-30.37-7.73
				c-9.24-5.15-16.61-12.52-22.11-22.11c-5.51-9.59-8.26-20.95-8.26-34.1C261.07,260.7,263.82,249.29,269.33,239.79z M288.37,297.99
				c3.82,6.57,8.92,11.55,15.32,14.92c6.39,3.38,13.32,5.06,20.78,5.06c6.21,0,12.34-1.69,18.38-5.06
				c6.04-3.37,11.01-8.35,14.92-14.92c3.9-6.57,5.86-14.56,5.86-23.97c0-9.41-1.96-17.4-5.86-23.97
				c-3.91-6.57-8.88-11.54-14.92-14.92c-6.04-3.37-12.17-5.06-18.38-5.06c-7.46,0-14.38,1.69-20.78,5.06
				c-6.39,3.38-11.5,8.35-15.32,14.92c-3.82,6.57-5.73,14.56-5.73,23.97C282.65,283.43,284.55,291.43,288.37,297.99z M384.94,127.51
				v207.78h-21.31V127.51H384.94z"/>
		</g>
	</g>
</g>
<g id="Layer_3" class="st2">
	<path class="st3" d="M368.86,427.14H131.14c-34.7,0-62.83-28.13-62.83-62.83V135.68c0-34.7,28.13-62.83,62.83-62.83h237.72
		c34.7,0,62.83,28.13,62.83,62.83v228.64C431.69,399.02,403.56,427.14,368.86,427.14z"/>
</g>
<g id="Layer_4" class="st2">
	<path class="st3" d="M368.86,427.14H131.14c-34.7,0-62.83-28.13-62.83-62.83V135.68c0-34.7,28.13-62.83,62.83-62.83h237.72
		c34.7,0,62.83,28.13,62.83,62.83v228.64C431.69,399.02,403.56,427.14,368.86,427.14z"/>
</g>
<g id="Layer_5" class="st2">
	<path class="st3" d="M368.86,427.14H131.14c-34.7,0-62.83-28.13-62.83-62.83V135.68c0-34.7,28.13-62.83,62.83-62.83h237.72
		c34.7,0,62.83,28.13,62.83,62.83v228.64C431.69,399.02,403.56,427.14,368.86,427.14z"/>
</g>
<g id="Layer_6" class="st2">
	<path class="st3" d="M368.86,427.14H131.14c-34.7,0-62.83-28.13-62.83-62.83V135.68c0-34.7,28.13-62.83,62.83-62.83h237.72
		c34.7,0,62.83,28.13,62.83,62.83v228.64C431.69,399.02,403.56,427.14,368.86,427.14z"/>
</g>
<g id="Layer_7" class="st2">
	<path class="st3" d="M368.86,427.14H131.14c-34.7,0-62.83-28.13-62.83-62.83V135.68c0-34.7,28.13-62.83,62.83-62.83h237.72
		c34.7,0,62.83,28.13,62.83,62.83v228.64C431.69,399.02,403.56,427.14,368.86,427.14z"/>
</g>
</svg>
